<svg width="190px" height="66px" viewBox="0 0 190 66" version="1.1" xmlns="http://www.w3.org/2000/svg" xmlns:xlink="http://www.w3.org/1999/xlink"><g id="Homepage" stroke="none" stroke-width="1" fill="none" fill-rule="evenodd"><g id="Lilt_HighFidelity_Homepage" transform="translate(-256.000000, -40.000000)" fill="#FFFFFF"><g id="Full-color" transform="translate(256.000000, 40.000000)"><path d="M32.5,42 C27.80545,42 24,38.19455 24,33.5 C24,28.805875 27.80545,25 32.5,25 C37.19455,25 41,28.805875 41,33.5 C41,38.19455 37.19455,42 32.5,42 Z" id="Path"></path><path d="M66,55.7916667 L12.375,55.7916667 C11.2359844,55.7916667 10.3125,54.8774083 10.3125,53.75 L10.3125,17 L0,17 L0,55.7916667 C0,61.4297292 4.61690625,66 10.3125,66 L55.6875,66 C61.3830938,66 66,61.4297292 66,55.7916667 Z" id="Path"></path><path d="M55.6875,49 L66,49 L66,10.2083333 C66,4.57027083 61.3830938,0 55.6875,0 L10.3125,0 C4.61690625,0 0,4.57027083 0,10.2083333 L53.625,10.2083333 C54.7639125,10.2083333 55.6875,11.1224896 55.6875,12.25 L55.6875,49 Z" id="Path"></path><polygon id="Path" points="89.8778529 46.1271154 89.8778529 12 81 12 81 46.1271154 81 55 89.8778529 55 109 55 109 46.1271154"></polygon><polygon id="Path" points="140.877853 46.1271154 140.877853 12 132 12 132 46.1271154 132 55 140.877853 55 160 55 160 46.1271154"></polygon><polygon id="Path" points="175.490815 12 166.509185 12 152 12 152 20.8728433 166.509185 20.8728433 166.509185 55 175.490815 55 175.490815 20.8728433 190 20.8728433 190 12"></polygon><polygon id="Path" points="124 46.1271154 124 12 116 12 116 46.1271154 116 55 124 55"></polygon></g></g></g></svg>